<svg width="104" height="24" viewBox="0 0 104 24" fill="none" xmlns="http://www.w3.org/2000/svg">
<path d="M102 13.5C102.828 13.5 103.5 12.8284 103.5 12C103.5 11.1716 102.828 10.5 102 10.5L102 12L102 13.5ZM0.93934 10.9393C0.353553 11.5251 0.353553 12.4749 0.93934 13.0607L10.4853 22.6066C11.0711 23.1924 12.0208 23.1924 12.6066 22.6066C13.1924 22.0208 13.1924 21.0711 12.6066 20.4853L4.12132 12L12.6066 3.51473C13.1924 2.92894 13.1924 1.97919 12.6066 1.39341C12.0208 0.80762 11.0711 0.80762 10.4853 1.39341L0.93934 10.9393ZM102 12L102 10.5L2 10.5L2 12L2 13.5L102 13.5L102 12Z" fill="white"/>
</svg>
